#!OML:ASF E:\Steps\Project 1\Capture day 1\Session 2\Subject.ASF
:FULLY-SPECIFIED
:DEGREES
157
root 0.228106 18.5888 19.7223 -155.966 -11.3984 181.632
lowerback -22.1515 -5.2211 -12.6177
upperback -0.389869 -4.02193 0.371406
thorax 12.9582 -2.79392 6.24569
lowerneck -2.51512 -4.26982 -0.787597
upperneck 23.2493 -9.90914 7.00581
head 7.992 -5.03942 1.56569
rclavicle 3.18055e-015 -3.02153e-014
rhumerus -47.1872 -28.1025 -68.5507
rradius 26.63
rwrist 1.69237
rhand -7.30299 -56.8753
rfingers 7.12502
rthumb 18.5794 -86.008
lclavicle 3.18055e-015 -3.02153e-014
lhumerus -28.5634 -2.60146 74.6902
lradius 26.5223
lwrist 1.53236
lhand -23.4482 -11.8565
lfingers 7.12502
lthumb 3.01027 18.102
rfemur -30.8121 9.05541 2.46815
rtibia 4.84379
rfoot 1.9499 -24.4784
rtoes 0.839589
lfemur -39.5569 -16.5706 -9.81705
ltibia 47.5798
lfoot -30.5654 -1.31309
ltoes -20.5575
158
root 0.278598 18.5515 19.6835 -155.859 -11.5268 181.593
lowerback -22.2003 -5.23471 -12.7085
upperback -0.387077 -4.00599 0.313049
thorax 12.9872 -2.79276 6.23225
lowerneck -2.59941 -4.40691 -0.702325
upperneck 23.3901 -10.0964 6.82873
head 8.0509 -5.13007 1.47286
rclavicle 7.15625e-015 -4.6118e-014
rhumerus -47.4713 -28.1913 -68.4668
rradius 26.7956
rwrist 1.54276
rhand -7.405 -57.2127
rfingers 7.12502
rthumb 18.4813 -86.3547
lclavicle 7.15625e-015 -4.6118e-014
lhumerus -28.4681 -2.73732 74.5403
lradius 26.6839
lwrist 1.79187
lhand -23.4911 -12.0052
lfingers 7.12502
lthumb 2.96887 17.9539
rfemur -30.669 9.35001 2.35267
rtibia 4.51905
rfoot 1.73682 -25.1449
rtoes 1.70477
lfemur -39.8088 -16.5737 -9.59953
ltibia 48.0951
lfoot -30.9339 -1.5995
ltoes -18.9323
159
root 0.332649 18.5127 19.6439 -155.718 -11.6521 181.579
lowerback -22.2459 -5.26387 -12.8531
upperback -0.415735 -4.00669 0.311027
thorax 12.9892 -2.80285 6.30992
lowerneck -2.74354 -4.38157 -0.673768
upperneck 23.6015 -10.0772 6.72545
head 8.14096 -5.12041 1.42738
rclavicle 6.99722e-014 -2.54444e-014
rhumerus -47.6715 -28.1993 -68.3567
rradius 26.8859
rwrist 1.39278
rhand -6.67286 -57.3539
rfingers 7.12502
rthumb 19.1854 -86.4276
lclavicle 6.99722e-014 -2.54444e-014
lhumerus -28.4255 -2.77915 74.4462
lradius 26.8567
lwrist 1.77884
lhand -23.4213 -12.3093
lfingers 7.12502
lthumb 3.03621 17.6488
rfemur -30.7096 9.33911 2.42128
rtibia 4.57629
rfoot 1.91305 -25.2956
rtoes 1.55425
lfemur -40.113 -16.6239 -9.28149
ltibia 48.6151
lfoot -31.3357 -2.07522
ltoes -16.6947
160
root 0.389539 18.4755 19.6068 -155.626 -11.8447 181.452
lowerback -22.1779 -5.2943 -13.0589
upperback -0.433438 -4.00254 0.242143
thorax 12.9385 -2.80991 6.35089
lowerneck -2.77133 -4.31918 -0.721812
upperneck 23.727 -10.0252 6.78326
head 8.19155 -5.09498 1.45567
rclavicle 1.19271e-015 -3.81667e-014
rhumerus -47.9161 -28.2066 -68.3138
rradius 26.9871
rwrist 1.21372
rhand -6.10125 -57.4199
rfingers 7.12502
rthumb 19.735 -86.4381
lclavicle 1.19271e-015 -3.81667e-014
lhumerus -28.4618 -3.11013 74.3498
lradius 27.1247
lwrist 1.73844
lhand -23.545 -11.9988
lfingers 7.12502
lthumb 2.91674 17.961
rfemur -30.6398 9.54955 2.30908
rtibia 4.60611
rfoot 1.79777 -25.5622
rtoes 2.52966
lfemur -40.3271 -16.7906 -9.05063
ltibia 49.0364
lfoot -31.6213 -2.32821
ltoes -16.1906
161
root 0.443548 18.4374 19.5665 -155.536 -11.983 181.191
lowerback -22.166 -5.37388 -13.3371
upperback -0.402969 -4.02877 0.142588
thorax 12.9865 -2.84074 6.38098
lowerneck -2.83582 -4.23635 -0.835918
upperneck 23.8109 -9.93788 6.89935
head 8.23879 -5.05081 1.51667
rclavicle -5.56597e-015 2.54444e-014
rhumerus -48.1259 -28.1711 -68.2955
rradius 27.1337
rwrist 1.03302
rhand -6.148 -57.3777
rfingers 7.12502
rthumb 19.6901 -86.4005
lclavicle -5.56597e-015 2.54444e-014
lhumerus -28.477 -3.25461 74.2408
lradius 27.3606
lwrist 1.76645
lhand -23.8734 -11.6428
lfingers 7.12502
lthumb 2.59961 18.3211
rfemur -30.505 9.59014 2.14367
rtibia 4.59497
rfoot 1.59811 -25.7863
rtoes 4.13339
lfemur -40.4582 -16.9844 -9.03385
ltibia 49.4145
lfoot -31.8913 -2.12001
ltoes -18.1002
162
root 0.500077 18.3986 19.521 -155.455 -12.1662 180.929
lowerback -22.1674 -5.47141 -13.6417
upperback -0.362367 -4.06992 0.0596223
thorax 13.0613 -2.88232 6.4383
lowerneck -2.82427 -4.23225 -0.872955
upperneck 23.8027 -9.94506 6.97859
head 8.24017 -5.05064 1.54887
rclavicle -3.97569e-016 6.67916e-014
rhumerus -48.2551 -28.0887 -68.2744
rradius 27.1234
rwrist 0.953548
rhand -6.21834 -57.0483
rfingers 7.12502
rthumb 19.6225 -86.0781
lclavicle -3.97569e-016 6.67916e-014
lhumerus -28.3557 -3.15666 74.0746
lradius 27.463
lwrist 1.84605
lhand -23.7319 -11.7484
lfingers 7.12502
lthumb 2.7363 18.2138
rfemur -30.3027 9.32757 2.16232
rtibia 4.66964
rfoot 1.8464 -25.6935
rtoes 3.70429
lfemur -40.5722 -17.2239 -8.99779
ltibia 49.8124
lfoot -32.2846 -2.20946
ltoes -18.3373
163
root 0.558183 18.3609 19.4754 -155.368 -12.451 180.658
lowerback -22.1308 -5.53916 -13.882
upperback -0.357292 -4.09638 -0.0676728
thorax 13.06 -2.90746 6.41585
lowerneck -2.602 -4.2521 -0.781517
upperneck 23.7131 -9.98033 6.99901
head 8.16843 -5.06932 1.54669
rclavicle 2.94201e-014 4.77083e-015
rhumerus -48.578 -28.0522 -68.2173
rradius 27.1637
rwrist 0.917459
rhand -6.3633 -56.1597
rfingers 7.12502
rthumb 19.4831 -85.2035
lclavicle 2.94201e-014 4.77083e-015
lhumerus -28.3344 -3.47525 73.9133
lradius 27.6659
lwrist 2.11533
lhand -23.4568 -11.9051
lfingers 7.12502
lthumb 3.002 18.0535
rfemur -29.955 9.20209 2.13186
rtibia 4.5802
rfoot 2.33401 -25.5976
rtoes 1.91139
lfemur -40.7142 -17.569 -8.92038
ltibia 50.2063
lfoot -32.6208 -2.41083
ltoes -17.8632
164
root 0.613788 18.3225 19.4309 -155.213 -12.6902 180.42
lowerback -22.1277 -5.62663 -13.9873
upperback -0.322593 -4.17564 -0.16094
thorax 13.1181 -2.95212 6.33484
lowerneck -2.6451 -4.23545 -0.75161
upperneck 23.6798 -9.90394 6.88919
head 8.15368 -5.03119 1.51206
rclavicle -4.81059e-014 3.02153e-014
rhumerus -48.6415 -27.9361 -68.34
rradius 27.2571
rwrist 0.656764
rhand -6.709 -55.5817
rfingers 7.12502
rthumb 19.1507 -84.6588
lclavicle -4.81059e-014 3.02153e-014
lhumerus -28.2271 -3.59646 73.7811
lradius 27.7993
lwrist 2.2837
lhand -23.6446 -11.9769
lfingers 7.12502
lthumb 2.82062 17.9842
rfemur -29.736 9.38878 1.97824
rtibia 4.47899
rfoot 2.63413 -25.6139
rtoes 0.753261
lfemur -40.9548 -17.8529 -8.80762
ltibia 50.6193
lfoot -32.8652 -2.25718
ltoes -19.0214
165
root 0.667858 18.2816 19.3857 -154.965 -12.8805 180.242
lowerback -22.2593 -5.69279 -14.0158
upperback -0.366659 -4.23976 -0.241533
thorax 13.1481 -2.98342 6.22701
lowerneck -2.52296 -4.21512 -0.839967
upperneck 23.6452 -9.85138 6.87035
head 8.11968 -5.01855 1.53027
rclavicle -3.77691e-014 -5.56597e-014
rhumerus -48.7465 -27.8003 -68.4273
rradius 27.2683
rwrist 0.494336
rhand -6.91043 -55.7063
rfingers 7.12502
rthumb 18.957 -84.8025
lclavicle -3.77691e-014 -5.56597e-014
lhumerus -28.1402 -3.47183 73.6004
lradius 27.7313
lwrist 2.13273
lhand -23.7415 -12.1852
lfingers 7.12502
lthumb 2.72703 17.7771
rfemur -29.8217 9.66569 1.81189
rtibia 4.64229
rfoot 3.00674 -25.6139
rtoes 1.07905
lfemur -41.328 -18.0655 -8.58965
ltibia 51.0661
lfoot -33.1445 -2.65551
ltoes -17.3632
